<svg xmlns="http://www.w3.org/2000/svg" viewBox="0 0 48 48" width="48" height="48">
  <path fill="#FFC107" d="M43.6 20.5H42V20H24v8h11.3c-1.6 4.5-5.9 7.7-11.3 7.7-6.6 0-12-5.4-12-12s5.4-12 12-12c3.1 0 5.9 1.2 8 3.1l5.7-5.7C34 5.1 29.3 3 24 3 12.4 3 3 12.4 3 24s9.4 21 21 21 21-9.4 21-21c0-1.2-.1-2.4-.4-3.5z"></path>
  <path fill="#FF3D00" d="M6.3 14.7l6.6 4.8C14.6 16 18.9 13.7 24 13.7c3.1 0 5.9 1.2 8 3.1l5.7-5.7C34 5.1 29.3 3 24 3 16.3 3 9.7 7.6 6.3 14.7z"></path>
  <path fill="#4CAF50" d="M24 45c5.2 0 9.9-2 13.4-5.2l-6.2-5.2c-2 1.5-4.5 2.4-7.2 2.4-5.3 0-9.7-3.4-11.3-8.1l-6.6 5.1C9.5 40.4 16.2 45 24 45z"></path>
  <path fill="#1976D2" d="M43.6 20.5H42V20H24v8h11.3c-.8 2.2-2.2 4.1-4.1 5.5l6.2 5.2C40.9 36 45 30.5 45 24c0-1.2-.1-2.4-.4-3.5z"></path>
</svg>